<svg width="800px" height="800px" viewBox="0 0 24 24" fill="none" xmlns="http://www.w3.org/2000/svg">
    <g id="right">
        <path d="M12.2929 16.7071C11.9024 16.3166 11.9024 15.6834 12.2929 15.2929L14.5858 13H7C6.44772 13 6 12.5523 6 12C6 11.4477 6.44772 11 7 11H14.5858L12.2929 8.70711C11.9024 8.31658 11.9024 7.68342 12.2929 7.29289C12.6834 6.90237 13.3166 6.90237 13.7071 7.29289L17.7071 11.2929C18.0976 11.6834 18.0976 12.3166 17.7071 12.7071L13.7071 16.7071C13.3166 17.0976 12.6834 17.0976 12.2929 16.7071Z" fill="green"/>
        <path fill-rule="evenodd" clip-rule="evenodd" d="M12 23C5.92487 23 1 18.0751 1 12C1 5.92487 5.92487 1 12 1C18.0751 1 23 5.92487 23 12C23 18.0751 18.0751 23 12 23ZM3 12C3 16.9706 7.02944 21 12 21C16.9706 21 21 16.9706 21 12C21 7.02944 16.9706 3 12 3C7.02944 3 3 7.02944 3 12Z" fill="green"/>
    </g>
    <g id="left">
        <path d="M11.7071 16.7071C12.0976 16.3166 12.0976 15.6834 11.7071 15.2929L9.41421 13H17C17.5523 13 18 12.5523 18 12C18 11.4477 17.5523 11 17 11H9.41421L11.7071 8.70711C12.0976 8.31658 12.0976 7.68342 11.7071 7.29289C11.3166 6.90237 10.6834 6.90237 10.2929 7.29289L6.29289 11.2929C5.90237 11.6834 5.90237 12.3166 6.29289 12.7071L10.2929 16.7071C10.6834 17.0976 11.3166 17.0976 11.7071 16.7071Z" fill="green"/>
        <path fill-rule="evenodd" clip-rule="evenodd" d="M12 23C18.0751 23 23 18.0751 23 12C23 5.92487 18.0751 1 12 1C5.92487 1 1 5.92487 1 12C1 18.0751 5.92487 23 12 23ZM21 12C21 16.9706 16.9706 21 12 21C7.02944 21 3 16.9706 3 12C3 7.02944 7.02944 3 12 3C16.9706 3 21 7.02944 21 12Z" fill="green"/>
    </g>
    <g id = "camera">
        <path fill-rule="evenodd" clip-rule="evenodd" d="M9.15023 3.01742C9.13605 3.03985 9.12278 3.0676 9.11298 3.09958C9.11044 3.10789 9.10778 3.11617 9.10502 3.12442L8.36963 5.31787C8.23301 5.72537 7.85129 6 7.4215 6H3C2.44772 6 2 6.44772 2 7V20C2 20.5523 2.44771 21 3 21H21C21.5523 21 22 20.5523 22 20V7C22 6.44771 21.5523 6 21 6H16.331C15.9011 6 15.5194 5.72528 15.3828 5.31769L14.6479 3.12423C14.6452 3.11605 14.6425 3.10783 14.64 3.09958C14.6302 3.0676 14.6169 3.03985 14.6027 3.01742C14.5986 3.01089 14.5946 3.00509 14.5908 3H9.16221C9.1584 3.00509 9.15437 3.01089 9.15023 3.01742ZM7.20525 2.49911C7.43535 1.76672 8.10563 1 9.06392 1H14.6891C15.6474 1 16.3177 1.76679 16.5478 2.49922L17.0506 4H21C22.6569 4 24 5.34315 24 7V20C24 21.6569 22.6569 23 21 23H3C1.34315 23 0 21.6569 0 20V7C0 5.34315 1.34315 4 3 4H6.70206L7.20525 2.49911ZM7 13C7 10.2386 9.23858 8 12 8C14.7614 8 17 10.2386 17 13C17 15.7614 14.7614 18 12 18C9.23858 18 7 15.7614 7 13ZM12 10C10.3431 10 9 11.3431 9 13C9 14.6569 10.3431 16 12 16C13.6569 16 15 14.6569 15 13C15 11.3431 13.6569 10 12 10Z" fill="green"/>
    </g>
    <g id = "bookmark">
        <path fill-rule="evenodd" clip-rule="evenodd" d="M3.5 3C3.5 1.89543 4.39543 1 5.5 1H18.5C19.6046 1 20.5 1.89543 20.5 3V22C20.5 22.3612 20.3052 22.6944 19.9904 22.8715C19.6756 23.0486 19.2897 23.0422 18.981 22.8548L12 18.6157L5.01903 22.8548C4.71028 23.0422 4.32441 23.0486 4.00961 22.8715C3.6948 22.6944 3.5 22.3612 3.5 22V3ZM18.5 3L5.5 3V20.2228L11.481 16.591C11.7999 16.3974 12.2001 16.3974 12.519 16.591L18.5 20.2228V3Z" fill="green"/>
    </g>
</svg>